<svg xmlns="http://www.w3.org/2000/svg" viewBox="0 0 24 24" fill="none" stroke="currentColor" stroke-width="1.5" stroke-linecap="round" stroke-linejoin="round">
  <path d="M12 5c-1.8 2-1.8 5 0 7c1.8-2 1.8-5 0-7Z" fill="currentColor" fill-opacity="0.2"/>
  <path d="M5.5 8.5c0 3 2 4.8 6.5 3.5c-1-3-3-5-6.5-3.5Z" fill="currentColor" fill-opacity="0.15"/>
  <path d="M18.5 8.5c0 3-2 4.8-6.5 3.5c1-3 3-5 6.5-3.5Z" fill="currentColor" fill-opacity="0.15"/>
  <path d="M3 14.5c3 1.2 6 1.2 9 0M21 14.5c-3 1.2-6 1.2-9 0"/>
  <path d="M3 17.5c3 1 6 1 9 1s6 0 9-1"/>
</svg>
